<?xml version="1.0" encoding="UTF-8" standalone="no"?>
<svg
   xmlns:dc="http://purl.org/dc/elements/1.1/"
   xmlns:cc="http://creativecommons.org/ns#"
   xmlns:rdf="http://www.w3.org/1999/02/22-rdf-syntax-ns#"
   xmlns:svg="http://www.w3.org/2000/svg"
   xmlns="http://www.w3.org/2000/svg"
   xmlns:sodipodi="http://sodipodi.sourceforge.net/DTD/sodipodi-0.dtd"
   xmlns:inkscape="http://www.inkscape.org/namespaces/inkscape"
   viewBox="0 0 50 50"
   version="1.1"
   id="svg4"
   sodipodi:docname="crm.svg"
   inkscape:version="1.0.1 (3bc2e813f5, 2020-09-07)">
  <metadata
     id="metadata10">
    <rdf:RDF>
      <cc:Work
         rdf:about="">
        <dc:format>image/svg+xml</dc:format>
        <dc:type
           rdf:resource="http://purl.org/dc/dcmitype/StillImage" />
      </cc:Work>
    </rdf:RDF>
  </metadata>
  <defs
     id="defs8" />
  <sodipodi:namedview
     pagecolor="#ffffff"
     bordercolor="#666666"
     borderopacity="1"
     objecttolerance="10"
     gridtolerance="10"
     guidetolerance="10"
     inkscape:pageopacity="0"
     inkscape:pageshadow="2"
     inkscape:window-width="1366"
     inkscape:window-height="705"
     id="namedview6"
     showgrid="false"
     inkscape:zoom="10.316487"
     inkscape:cx="25"
     inkscape:cy="25"
     inkscape:window-x="-8"
     inkscape:window-y="-8"
     inkscape:window-maximized="1"
     inkscape:current-layer="svg4" />
  <path
     d="M 24.121094 4.0078125 C 23.624094 3.9458125 23.151297 4.2687656 23.029297 4.7597656 C 22.970297 5.0007656 16.857781 29.021641 2.4257812 39.181641 C 2.1587812 39.369641 2 39.675 2 40 L 2 43 C 2 43.394 2.2298438 43.750109 2.5898438 43.912109 C 2.7218438 43.971109 2.861 44 3 44 C 3.24 44 3.4780625 43.914047 3.6640625 43.748047 C 12.246062 36.132047 24.131 32.99975 24.25 32.96875 C 24.691 32.85475 25 32.456 25 32 L 25 5 C 25 4.495 24.623094 4.0688125 24.121094 4.0078125 z M 36.160156 10.013672 C 35.675156 9.9336719 35.206781 10.218594 35.050781 10.683594 C 35.030781 10.743594 33.234 15.899328 27 22.486328 L 27 32 C 27 33.367 26.075906 34.562297 24.753906 34.904297 C 24.671906 34.925297 18.789937 36.49725 12.460938 40.03125 C 23.619937 36.68025 35.813703 36.994 35.970703 37 C 36.240703 37.013 36.503266 36.90675 36.697266 36.71875 C 36.891266 36.52975 37 36.271 37 36 L 37 11 C 37 10.51 36.644156 10.092672 36.160156 10.013672 z M 47.029297 17 C 46.723062 16.991422 46.422156 17.123594 46.222656 17.371094 C 44.131656 19.965094 41.708 22.414359 39 24.693359 L 39 36 C 39 36.807 38.667844 37.592344 38.089844 38.152344 C 37.526844 38.699344 36.789672 39.001953 36.013672 39.001953 L 35.933594 39 L 35.904297 38.998047 C 35.856297 38.997047 35.529609 38.990234 34.974609 38.990234 C 31.712609 38.990234 14.918781 39.306359 4.5507812 45.568359 C 4.4307812 45.639359 4.3312344 45.683703 4.2402344 45.720703 C 7.1822344 45.010703 16.366 43 26 43 C 37.602 43 46.5985 45.919219 46.6875 45.949219 C 46.9935 46.050219 47.325938 45.998547 47.585938 45.810547 C 47.845937 45.622547 48 45.321 48 45 L 48 18 C 48 17.576 47.731031 17.197641 47.332031 17.056641 C 47.232281 17.021391 47.131375 17.002859 47.029297 17 z"
     id="path2"
     style="fill:#ffffff" />
</svg>
