<?xml version="1.0" encoding="UTF-8" standalone="no"?>
<svg
   xmlns:dc="http://purl.org/dc/elements/1.1/"
   xmlns:cc="http://creativecommons.org/ns#"
   xmlns:rdf="http://www.w3.org/1999/02/22-rdf-syntax-ns#"
   xmlns:svg="http://www.w3.org/2000/svg"
   xmlns="http://www.w3.org/2000/svg"
   xmlns:sodipodi="http://sodipodi.sourceforge.net/DTD/sodipodi-0.dtd"
   xmlns:inkscape="http://www.inkscape.org/namespaces/inkscape"
   viewBox="0 0 50 50"
   version="1.1"
   id="svg4"
   sodipodi:docname="directorio.svg"
   inkscape:version="1.0.1 (3bc2e813f5, 2020-09-07)">
  <metadata
     id="metadata10">
    <rdf:RDF>
      <cc:Work
         rdf:about="">
        <dc:format>image/svg+xml</dc:format>
        <dc:type
           rdf:resource="http://purl.org/dc/dcmitype/StillImage" />
      </cc:Work>
    </rdf:RDF>
  </metadata>
  <defs
     id="defs8" />
  <sodipodi:namedview
     pagecolor="#ffffff"
     bordercolor="#666666"
     borderopacity="1"
     objecttolerance="10"
     gridtolerance="10"
     guidetolerance="10"
     inkscape:pageopacity="0"
     inkscape:pageshadow="2"
     inkscape:window-width="1920"
     inkscape:window-height="1017"
     id="namedview6"
     showgrid="false"
     inkscape:zoom="16.332832"
     inkscape:cx="25"
     inkscape:cy="25"
     inkscape:window-x="1358"
     inkscape:window-y="-8"
     inkscape:window-maximized="1"
     inkscape:current-layer="svg4" />
  <path
     d="M 11 4 C 9.346 4 8 5.346 8 7 L 8 12 L 7 12 A 1.0001 1.0001 0 1 0 7 14 L 11 14 A 1.0001 1.0001 0 0 0 11.863281 13.525391 C 11.942688 13.668737 12 13.824628 12 14 C 12 14.552 11.552 15 11 15 L 8 15 L 8 18 L 7 18 A 1.0001 1.0001 0 1 0 7 20 L 11 20 A 1.0001 1.0001 0 0 0 11.863281 19.525391 C 11.942688 19.668737 12 19.824628 12 20 C 12 20.552 11.552 21 11 21 L 8 21 L 8 24 L 7 24 A 1.0001 1.0001 0 1 0 7 26 L 11 26 A 1.0001 1.0001 0 0 0 11.863281 25.525391 C 11.942688 25.668747 12 25.82431 12 26 C 12 26.553 11.552 27 11 27 L 8 27 L 8 30 L 7 30 A 1.0001 1.0001 0 1 0 7 32 L 11 32 A 1.0001 1.0001 0 0 0 11.863281 31.525391 C 11.942688 31.668747 12 31.82431 12 32 C 12 32.553 11.552 33 11 33 L 8 33 L 8 36 L 7 36 A 1.0001 1.0001 0 1 0 7 38 L 11 38 A 1.0001 1.0001 0 0 0 11.863281 37.525391 C 11.942688 37.668747 12 37.82431 12 38 C 12 38.553 11.552 39 11 39 L 8 39 L 8 43 C 8 44.654 9.346 46 11 46 L 39 46 C 40.654 46 42 44.654 42 43 L 42 7 C 42 5.346 40.654 4 39 4 L 11 4 z M 26.501953 15 L 27 16 C 30.269 16 30.413875 20.257453 29.546875 21.314453 C 29.779875 21.377453 30.005594 21.735688 29.933594 22.304688 C 29.800594 23.364687 29.346594 23.632297 29.058594 23.654297 C 28.947594 24.644297 28 26 28 26 L 28 28.019531 C 28.854 30.278531 34.734 29.644 35 34 L 16 34 C 16.266 29.643 22.147 30.278531 23 28.019531 C 23 27.083531 23.044922 26 23.044922 26 L 23 26 C 22.633 25.816 22.051406 24.643297 21.941406 23.654297 C 21.653406 23.632297 21.199406 23.364687 21.066406 22.304688 C 20.995406 21.735688 21.281125 21.414453 21.453125 21.314453 C 20.092125 18.412453 21.804953 15 26.501953 15 z"
     id="path2"
     style="fill:#ffffff" />
</svg>
