<?xml version="1.0" encoding="UTF-8" standalone="no"?>
<svg
   xmlns:dc="http://purl.org/dc/elements/1.1/"
   xmlns:cc="http://creativecommons.org/ns#"
   xmlns:rdf="http://www.w3.org/1999/02/22-rdf-syntax-ns#"
   xmlns:svg="http://www.w3.org/2000/svg"
   xmlns="http://www.w3.org/2000/svg"
   xmlns:sodipodi="http://sodipodi.sourceforge.net/DTD/sodipodi-0.dtd"
   xmlns:inkscape="http://www.inkscape.org/namespaces/inkscape"
   width="26"
   height="26"
   viewBox="0 0 26 26"
   version="1.1"
   id="svg4"
   sodipodi:docname="gestiones.svg"
   inkscape:version="1.0.1 (3bc2e813f5, 2020-09-07)">
  <metadata
     id="metadata10">
    <rdf:RDF>
      <cc:Work
         rdf:about="">
        <dc:format>image/svg+xml</dc:format>
        <dc:type
           rdf:resource="http://purl.org/dc/dcmitype/StillImage" />
      </cc:Work>
    </rdf:RDF>
  </metadata>
  <defs
     id="defs8" />
  <sodipodi:namedview
     pagecolor="#ffffff"
     bordercolor="#666666"
     borderopacity="1"
     objecttolerance="10"
     gridtolerance="10"
     guidetolerance="10"
     inkscape:pageopacity="0"
     inkscape:pageshadow="2"
     inkscape:window-width="1920"
     inkscape:window-height="1017"
     id="namedview6"
     showgrid="false"
     inkscape:zoom="31.409291"
     inkscape:cx="13"
     inkscape:cy="13"
     inkscape:window-x="1358"
     inkscape:window-y="-8"
     inkscape:window-maximized="1"
     inkscape:current-layer="svg4" />
  <path
     style="text-indent:0;text-align:start;line-height:normal;text-transform:none;block-progression:tb;-inkscape-font-specification:Bitstream Vera Sans;fill:#ffffff"
     d="M 13 0 C 10.320292 0 8.1961671 0.83382253 6.84375 2.34375 C 5.4913329 3.8536775 5 5.8416872 5 7.90625 L 5 9 L 8 9 L 8 7.90625 C 8 6.3108128 8.3606671 5.1273225 9.0625 4.34375 C 9.7643329 3.5601775 10.896708 3 13 3 C 15.106219 3 16.237749 3.5336366 16.9375 4.3125 C 17.637251 5.0913634 18 6.295032 18 7.90625 L 18 9 L 21 9 L 21 7.90625 C 21 5.829468 20.510749 3.8201366 19.15625 2.3125 C 17.801751 0.80486336 15.676781 0 13 0 z M 5 10 C 3.344 10 2 11.344 2 13 L 2 23 C 2 24.656 3.344 26 5 26 L 21 26 C 22.656 26 24 24.656 24 23 L 24 13 C 24 11.344 22.656 10 21 10 L 5 10 z M 7 16 C 8.104 16 9 16.895 9 18 C 9 19.104 8.104 20 7 20 C 5.896 20 5 19.104 5 18 C 5 16.895 5.896 16 7 16 z M 13 16 C 14.104 16 15 16.895 15 18 C 15 19.104 14.104 20 13 20 C 11.896 20 11 19.104 11 18 C 11 16.895 11.896 16 13 16 z M 19 16 C 20.104 16 21 16.895 21 18 C 21 19.104 20.104 20 19 20 C 17.896 20 17 19.104 17 18 C 17 16.895 17.896 16 19 16 z"
     overflow="visible"
     enable-background="accumulate"
     font-family="Bitstream Vera Sans"
     id="path2" />
</svg>
