<?xml version="1.0" encoding="UTF-8" standalone="no"?>
<svg
   xmlns:dc="http://purl.org/dc/elements/1.1/"
   xmlns:cc="http://creativecommons.org/ns#"
   xmlns:rdf="http://www.w3.org/1999/02/22-rdf-syntax-ns#"
   xmlns:svg="http://www.w3.org/2000/svg"
   xmlns="http://www.w3.org/2000/svg"
   xmlns:sodipodi="http://sodipodi.sourceforge.net/DTD/sodipodi-0.dtd"
   xmlns:inkscape="http://www.inkscape.org/namespaces/inkscape"
   width="26"
   height="26"
   viewBox="0 0 26 26"
   version="1.1"
   id="svg4"
   sodipodi:docname="integra.svg"
   inkscape:version="1.0.1 (3bc2e813f5, 2020-09-07)">
  <metadata
     id="metadata10">
    <rdf:RDF>
      <cc:Work
         rdf:about="">
        <dc:format>image/svg+xml</dc:format>
        <dc:type
           rdf:resource="http://purl.org/dc/dcmitype/StillImage" />
      </cc:Work>
    </rdf:RDF>
  </metadata>
  <defs
     id="defs8" />
  <sodipodi:namedview
     pagecolor="#ffffff"
     bordercolor="#666666"
     borderopacity="1"
     objecttolerance="10"
     gridtolerance="10"
     guidetolerance="10"
     inkscape:pageopacity="0"
     inkscape:pageshadow="2"
     inkscape:window-width="1920"
     inkscape:window-height="1017"
     id="namedview6"
     showgrid="false"
     inkscape:zoom="31.409291"
     inkscape:cx="13"
     inkscape:cy="13"
     inkscape:window-x="1358"
     inkscape:window-y="-8"
     inkscape:window-maximized="1"
     inkscape:current-layer="svg4" />
  <path
     d="M 3 1 C 1.344 1 0 2.344 0 4 L 0 18 C 0 19.656 1.344 21 3 21 L 10 21 L 10 22 C 10 22.551 10.449 23 11 23 L 15 23 C 15.551 23 16 22.484 16 22 L 16 21 L 23 21 C 24.656 21 26 19.656 26 18 L 26 4 C 26 2.344 24.656 1 23 1 L 3 1 z M 3 3 L 23 3 C 23.551 3 24 3.449 24 4 L 24 16 C 24 16.551 23.551 17 23 17 L 3 17 C 2.449 17 2 16.551 2 16 L 2 4 C 2 3.449 2.449 3 3 3 z M 10.875 4 A 1.0001 1.0001 0 0 0 10.09375 4.5625 L 7.375 10 L 3 10 L 3 12 L 8 12 A 1.0001 1.0001 0 0 0 8.90625 11.4375 L 10.75 7.71875 L 13.03125 15.28125 A 1.0001 1.0001 0 0 0 14.90625 15.4375 L 16.625 12 L 23 12 L 23 10 L 16 10 A 1.0001 1.0001 0 0 0 15.09375 10.5625 L 14.25 12.28125 L 11.96875 4.71875 A 1.0001 1.0001 0 0 0 10.875 4 z M 23.28125 18.28125 C 23.68225 18.28125 24 18.6 24 19 C 24 19.4 23.68225 19.71875 23.28125 19.71875 C 22.88225 19.71875 22.5625 19.401 22.5625 19 C 22.5625 18.599 22.88125 18.28125 23.28125 18.28125 z M 6 24 C 5.449 24 5 25 5 25 L 5 26 L 21 26 L 21 25 C 21 24.449 20.551 24 20 24 L 6 24 z"
     id="path2"
     style="fill:#ffffff" />
</svg>
