<?xml version="1.0" encoding="UTF-8" standalone="no"?>
<svg
   xmlns:dc="http://purl.org/dc/elements/1.1/"
   xmlns:cc="http://creativecommons.org/ns#"
   xmlns:rdf="http://www.w3.org/1999/02/22-rdf-syntax-ns#"
   xmlns:svg="http://www.w3.org/2000/svg"
   xmlns="http://www.w3.org/2000/svg"
   xmlns:sodipodi="http://sodipodi.sourceforge.net/DTD/sodipodi-0.dtd"
   xmlns:inkscape="http://www.inkscape.org/namespaces/inkscape"
   viewBox="0 0 50 50"
   version="1.1"
   id="svg4"
   sodipodi:docname="perfil.svg"
   inkscape:version="1.0.1 (3bc2e813f5, 2020-09-07)">
  <metadata
     id="metadata10">
    <rdf:RDF>
      <cc:Work
         rdf:about="">
        <dc:format>image/svg+xml</dc:format>
        <dc:type
           rdf:resource="http://purl.org/dc/dcmitype/StillImage" />
      </cc:Work>
    </rdf:RDF>
  </metadata>
  <defs
     id="defs8" />
  <sodipodi:namedview
     pagecolor="#ffffff"
     bordercolor="#666666"
     borderopacity="1"
     objecttolerance="10"
     gridtolerance="10"
     guidetolerance="10"
     inkscape:pageopacity="0"
     inkscape:pageshadow="2"
     inkscape:window-width="1920"
     inkscape:window-height="1017"
     id="namedview6"
     showgrid="false"
     inkscape:zoom="16.332832"
     inkscape:cx="25"
     inkscape:cy="25"
     inkscape:window-x="1358"
     inkscape:window-y="-8"
     inkscape:window-maximized="1"
     inkscape:current-layer="svg4" />
  <path
     style="text-indent:0;text-align:start;line-height:normal;text-transform:none;block-progression:tb;-inkscape-font-specification:Sans;fill:#ffffff"
     d="M 25 1 C 22.790196 1 21 2.7901961 21 5 L 21 6 L 12 6 C 10.3 6 9 7.3 9 9 L 9 46 C 9 47.7 10.3 49 12 49 L 38 49 C 39.7 49 41 47.7 41 46 L 41 9 C 41 7.3 39.7 6 38 6 L 29 6 L 29 5 C 29 2.7901961 27.209804 1 25 1 z M 25 3 C 26.190196 3 27 3.8098039 27 5 L 27 9 L 23 9 L 23 5 C 23 3.8098039 23.809804 3 25 3 z M 25 4 C 24.447715 4 24 4.4477153 24 5 C 24 5.5522847 24.447715 6 25 6 C 25.552285 6 26 5.5522847 26 5 C 26 4.4477153 25.552285 4 25 4 z M 24.90625 15 C 25.80625 15 26.5125 15.1875 26.8125 15.6875 C 29.5125 16.0875 28.7125 19.70625 28.3125 20.90625 C 28.4125 21.00625 28.69375 21.3125 28.59375 21.8125 C 28.59375 22.7125 28.2 23 28 23 C 27.9 23.9 27.4 24.9 27 25 L 27 26.8125 C 27.7 28.8125 32.70625 28.2 32.90625 32 L 17 32 C 17.2 28.2 22.20625 28.8125 22.90625 26.8125 C 23.00625 26.1125 22.90625 25.7 22.90625 25 C 22.60625 24.8 22.00625 23.8 21.90625 23 C 21.70625 23 21.2875 22.7125 21.1875 21.8125 C 21.0875 21.3125 21.4 21.00625 21.5 20.90625 C 20.7 17.80625 21.10625 15 24.90625 15 z M 18 36 L 32 36 C 32.6 36 33 36.4 33 37 C 33 37.6 32.6 38 32 38 L 18 38 C 17.4 38 17 37.6 17 37 C 17 36.4 17.4 36 18 36 z M 18 40 L 32 40 C 32.6 40 33 40.4 33 41 C 33 41.6 32.6 42 32 42 L 18 42 C 17.4 42 17 41.6 17 41 C 17 40.4 17.4 40 18 40 z"
     overflow="visible"
     font-family="Sans"
     id="path2" />
</svg>
