<?xml version="1.0" encoding="UTF-8" standalone="no"?>
<svg
   xmlns:dc="http://purl.org/dc/elements/1.1/"
   xmlns:cc="http://creativecommons.org/ns#"
   xmlns:rdf="http://www.w3.org/1999/02/22-rdf-syntax-ns#"
   xmlns:svg="http://www.w3.org/2000/svg"
   xmlns="http://www.w3.org/2000/svg"
   xmlns:sodipodi="http://sodipodi.sourceforge.net/DTD/sodipodi-0.dtd"
   xmlns:inkscape="http://www.inkscape.org/namespaces/inkscape"
   width="400"
   height="400"
   viewBox="0 0 105.83333 105.83334"
   version="1.1"
   id="svg8"
   inkscape:version="1.0.1 (3bc2e813f5, 2020-09-07)"
   sodipodi:docname="logo.svg"
   inkscape:export-filename="C:\Users\jtojil\Downloads\Curso front-end\logins\cofalnet\css\img\logo1.png"
   inkscape:export-xdpi="96"
   inkscape:export-ydpi="96">
  <defs
     id="defs2">
    <rect
       x="45.579578"
       y="38.53883"
       width="123.0278"
       height="71.519173"
       id="rect838" />
  </defs>
  <sodipodi:namedview
     id="base"
     pagecolor="#ffffff"
     bordercolor="#666666"
     borderopacity="1.0"
     inkscape:pageopacity="0"
     inkscape:pageshadow="2"
     inkscape:zoom="1.5705223"
     inkscape:cx="206.06166"
     inkscape:cy="205.31201"
     inkscape:document-units="px"
     inkscape:current-layer="layer5"
     inkscape:document-rotation="0"
     showgrid="true"
     inkscape:window-width="1920"
     inkscape:window-height="1017"
     inkscape:window-x="1358"
     inkscape:window-y="-8"
     inkscape:window-maximized="1"
     showguides="false"
     units="px">
    <inkscape:grid
       type="xygrid"
       id="grid863" />
  </sodipodi:namedview>
  <metadata
     id="metadata5">
    <rdf:RDF>
      <cc:Work
         rdf:about="">
        <dc:format>image/svg+xml</dc:format>
        <dc:type
           rdf:resource="http://purl.org/dc/dcmitype/StillImage" />
        <dc:title></dc:title>
      </cc:Work>
    </rdf:RDF>
  </metadata>
  <g
     inkscape:groupmode="layer"
     id="layer3"
     inkscape:label="Fondo"
     sodipodi:insensitive="true">
    <rect
       style="fill:#b80f22;fill-opacity:1;stroke-width:0.264583"
       id="rect874"
       width="105.83334"
       height="105.83334"
       x="0"
       y="0" />
  </g>
  <g
     inkscape:groupmode="layer"
     id="layer2"
     inkscape:label="Script"
     sodipodi:insensitive="true"
     style="display:none">
    <path
       d="m 26.646156,25.585405 c -1.00699,0 -1.855277,0.731402 -1.855277,1.634772 v 38.983027 c 0,0.905414 0.848261,1.634782 1.855277,1.634782 h 20.978845 v 2.012019 H 34.352665 l -7.278382,8.048111 H 81.876166 L 74.597793,69.850005 H 61.325462 v -2.012019 h 20.978843 c 1.004699,0 1.855273,-0.731408 1.855273,-1.634782 V 27.220177 c 0,-0.9034 -0.848252,-1.634772 -1.855273,-1.634772 z m 4.638175,4.024046 h 46.381802 c 1.080045,0 1.926617,0.704718 1.926617,1.571898 v 31.060673 c 0,0.863168 -0.848864,1.571911 -1.926617,1.571911 H 31.284331 c -1.077753,0 -1.926625,-0.708743 -1.926625,-1.571911 V 31.181349 c 0,-0.86718 0.848872,-1.571898 1.926625,-1.571898 z m 14.913525,6.287589 -12.273332,10.814659 12.273332,10.814637 3.282411,-2.892283 -8.990928,-7.922354 8.990928,-7.922363 z m 16.554737,0 -3.282405,2.892296 8.990936,7.922363 -8.990936,7.922354 3.282405,2.892283 12.273339,-10.814637 z"
       id="path852"
       style="fill:#ffffff;stroke-width:2.14344" />
  </g>
  <g
     inkscape:groupmode="layer"
     id="layer4"
     inkscape:label="Candado"
     sodipodi:insensitive="true"
     style="display:none">
    <path
       style="line-height:normal;-inkscape-font-specification:'Bitstream Vera Sans';text-indent:0;text-align:start;text-transform:none;fill:#ffffff;stroke-width:2.53659"
       d="m 54.504168,16.933334 c -7.141579,0 -12.802508,2.013112 -16.406779,5.658569 -3.604271,3.645456 -4.913696,8.445151 -4.913696,13.429674 v 2.640666 h 7.995176 v -2.640666 c 0,-3.8519 0.961235,-6.70923 2.831627,-8.601025 1.870424,-1.891804 4.888275,-3.244247 10.493672,-3.244247 5.613193,0 8.628787,1.288367 10.493671,3.168793 1.864874,1.880435 2.831617,4.786473 2.831617,8.676479 v 2.640666 h 7.995178 v -2.640666 c 0,-5.014024 -1.303877,-9.865202 -4.913698,-13.50512 -3.609821,-3.639926 -9.272995,-5.583123 -16.406768,-5.583123 z M 33.183693,41.076562 c -4.413339,0 -7.995178,3.244851 -7.995178,7.24297 v 24.143236 c 0,3.99812 3.581839,7.24297 7.995178,7.24297 h 42.640941 c 4.413337,0 7.995176,-3.24485 7.995176,-7.24297 V 48.319532 c 0,-3.998119 -3.581839,-7.24297 -7.995176,-7.24297 z m 5.330121,14.485939 c 2.942224,0 5.33011,2.160819 5.33011,4.828649 0,2.665413 -2.387886,4.82865 -5.33011,4.82865 -2.942226,0 -5.330121,-2.163237 -5.330121,-4.82865 0,-2.66783 2.387895,-4.828649 5.330121,-4.828649 z m 15.990354,0 c 2.942225,0 5.330112,2.160819 5.330112,4.828649 0,2.665413 -2.387887,4.82865 -5.330112,4.82865 -2.942225,0 -5.330121,-2.163237 -5.330121,-4.82865 0,-2.66783 2.387896,-4.828649 5.330121,-4.828649 z m 15.990354,0 c 2.942225,0 5.330112,2.160819 5.330112,4.828649 0,2.665413 -2.387887,4.82865 -5.330112,4.82865 -2.942225,0 -5.330121,-2.163237 -5.330121,-4.82865 0,-2.66783 2.387896,-4.828649 5.330121,-4.828649 z"
       overflow="visible"
       enable-background="accumulate"
       font-family="'Bitstream Vera Sans'"
       id="path897" />
  </g>
  <g
     inkscape:groupmode="layer"
     id="layer5"
     inkscape:label="Llave">
    <path
       d="m 41.196933,20.866181 c -11.737894,0 -21.068011,8.70321 -21.068011,19.652401 0,10.949191 9.330117,19.65239 21.068011,19.65239 2.693434,0 5.262114,-0.477493 7.61835,-1.316004 l 4.420523,4.123486 h 6.019426 v 5.614973 h 6.019436 V 74.2084 l 2.06918,1.930145 c 0.601981,0.561533 1.260316,0.877315 2.163231,0.877315 h 7.806451 c 1.805827,0 3.009727,-1.12299 3.009727,-2.807481 v -7.281914 c 0,-0.842192 -0.33865,-1.456387 -0.94051,-2.017887 L 60.854168,47.625001 c 0.898876,-2.197913 1.41081,-4.593997 1.41081,-7.10644 0,-10.949191 -9.330128,-19.652401 -21.068022,-19.652401 z m -4.514574,8.422455 c 4.213606,0 7.524298,3.088237 7.524298,7.018719 0,3.930472 -3.310692,7.018708 -7.524298,7.018708 -4.213596,0 -7.524288,-3.088236 -7.524288,-7.018708 0,-3.930482 3.310692,-7.018719 7.524288,-7.018719 z"
       id="path919"
       style="stroke-width:2.90684;fill:#ffffff" />
  </g>
</svg>
